<svg width="14" height="24" viewBox="0 0 14 24" fill="none" xmlns="http://www.w3.org/2000/svg">
<g filter="url(#filter0_d_1346_1244)">
<path d="M0.135575 23.4596L13.931 9.38235C13.959 9.35395 13.9746 9.3158 13.9746 9.27607L14 0.157584C14.0001 0.137152 13.9959 0.116921 13.9879 0.0981133C13.9799 0.0793057 13.9681 0.062312 13.9532 0.0481589C13.9389 0.0339013 13.9219 0.0225876 13.9032 0.0148677C13.8845 0.00714781 13.8645 0.00317383 13.8442 0.00317383C13.8239 0.00317383 13.8039 0.00714781 13.7852 0.0148677C13.7665 0.0225876 13.7495 0.0339013 13.7352 0.0481589L0.065011 13.9979C0.0370426 14.0263 0.02139 14.0644 0.0214062 14.1042L-2.86102e-06 23.4061C0.000369072 23.4215 0.00530434 23.4365 0.0141878 23.4492C0.0230722 23.4618 0.0355148 23.4716 0.049964 23.4773C0.0644131 23.483 0.0802317 23.4844 0.0954542 23.4813C0.110676 23.4781 0.124629 23.4706 0.135575 23.4596Z" fill="url(#paint0_linear_1346_1244)"/>
</g>
<defs>
<filter id="filter0_d_1346_1244" x="-4" y="0.00317383" width="22" height="31.4797" filterUnits="userSpaceOnUse" color-interpolation-filters="sRGB">
<feFlood flood-opacity="0" result="BackgroundImageFix"/>
<feColorMatrix in="SourceAlpha" type="matrix" values="0 0 0 0 0 0 0 0 0 0 0 0 0 0 0 0 0 0 127 0" result="hardAlpha"/>
<feOffset dy="4"/>
<feGaussianBlur stdDeviation="2"/>
<feComposite in2="hardAlpha" operator="out"/>
<feColorMatrix type="matrix" values="0 0 0 0 0 0 0 0 0 0 0 0 0 0 0 0 0 0 0.25 0"/>
<feBlend mode="normal" in2="BackgroundImageFix" result="effect1_dropShadow_1346_1244"/>
<feBlend mode="normal" in="SourceGraphic" in2="effect1_dropShadow_1346_1244" result="shape"/>
</filter>
<linearGradient id="paint0_linear_1346_1244" x1="16.1375" y1="2.09496" x2="-2.50176" y2="21.9465" gradientUnits="userSpaceOnUse">
<stop stop-color="#FF5F6D"/>
<stop offset="1" stop-color="#FFC371"/>
</linearGradient>
</defs>
</svg>
